<svg xmlns="http://www.w3.org/2000/svg" enable-background="new 0 0 66 66" viewBox="0 0 66 66"><path d="M16.7 55.4h-1.8l-.5-.7c1.1-.8 2-1.9 2.6-3.4 1.8-.6 2.3-3.8.9-5.1-.2-5.1-3.6-7.4-7-7.4-3.4 0-6.8 2.3-7 7.4-1.4 1.3-.9 4.5.9 5.1.6 1.5 1.5 2.6 2.6 3.4l-.5.7H5c-2.2 0-4 1.8-4 4V64c0 .6.4 1 1 1h17.7c.6 0 1-.4 1-1v-4.5C20.7 57.2 18.9 55.4 16.7 55.4zM10.8 58.8c-1.5-.5-2.1-1.5-2.4-2.2l.7-1c.5.2 1.1.3 1.7.3.6 0 1.1-.1 1.7-.3l.7 1C13 57.4 12.3 58.4 10.8 58.8zM10.9 53.9c-1.8 0-3.6-1.5-4.5-3.9-.1-.4-.5-.7-.9-.7H5.4c-.6-.5-.2-1.6-.3-1.6.4-.1.7-.5.7-1 0-3.6 2-5.9 5-5.9 3 0 5 2.3 5 5.9 0 .5.2.8.7.9.3.2.2 1.3-.2 1.6h-.1c-.4 0-.8.3-.9.7C14.4 52.4 12.7 53.9 10.9 53.9zM38.8 55.4H37l-.5-.7c1.1-.8 2-1.9 2.6-3.4 1.8-.6 2.3-3.8.9-5.1-.2-5.1-3.6-7.4-7-7.4-3.4 0-6.8 2.3-7 7.4-1.4 1.3-.9 4.5.9 5.1.6 1.5 1.5 2.6 2.6 3.4L29 55.4h-1.8c-2.2 0-4 1.8-4 4V64c0 .6.5 1 1 1h17.7c.6 0 1-.4 1-1v-4.5C42.8 57.2 41.1 55.4 38.8 55.4zM33 58.8c-1.4-.5-2.1-1.5-2.4-2.2l.7-1c.5.2 1.1.3 1.7.3.6 0 1.1-.1 1.7-.3l.7 1C35.1 57.4 34.4 58.4 33 58.8zM33 53.9c-1.8 0-3.6-1.5-4.5-3.9-.3-.7-.9-.6-1-.7-.6-.5-.2-1.6-.3-1.6.4-.1.7-.5.7-1 0-3.6 2-5.9 5-5.9 3 0 5 2.3 5 5.9 0 .5.2.8.7.9.3.2.2 1.4-.2 1.6h-.1c-.4 0-.8.3-.9.7C36.6 52.4 34.8 53.9 33 53.9zM61 55.4h-1.8l-.5-.7c1.1-.8 2-1.9 2.6-3.4 1.8-.6 2.4-3.8.9-5.1-.2-5.1-3.6-7.4-7-7.4-3.4 0-6.8 2.3-7 7.4-1.4 1.3-.9 4.5.9 5.1.6 1.5 1.5 2.6 2.6 3.4l-.5.7h-1.8c-2.2 0-4 1.8-4 4V64c0 .6.5 1 1 1H64c.6 0 1-.4 1-1v-4.5C65 57.2 63.2 55.4 61 55.4zM55.2 58.8c-1.5-.5-2.2-1.5-2.4-2.2l.7-1c.5.2 1.1.3 1.7.3.6 0 1.1-.1 1.7-.3l.7 1C57.3 57.4 56.6 58.4 55.2 58.8zM55.2 53.9c-1.8 0-3.6-1.5-4.4-3.9-.3-.7-.9-.6-1-.7-.5-.5-.2-1.6-.2-1.6.4-.1.7-.5.7-1 0-3.6 2-5.9 5-5.9 3 0 5 2.3 5 5.9 0 .5.2.8.7.9.3.2.2 1.3-.2 1.6h-.1c-.4 0-.8.3-.9.7C58.7 52.4 57 53.9 55.2 53.9zM11.9 36.9v-4.6H32v4.6c.3 0 .7-.1 1-.1.3 0 .7 0 1 .1v-4.6h20.2v4.6c.3 0 .7-.1 1-.1s.7 0 1 .1v-5.6c0-.5-.4-1-1-1H34v-5.4c-.4-.2-.7-.4-1-.6-.3.2-.6.4-1 .6v5.5H10.9c-.5 0-1 .5-1 1v5.6c.3 0 .7-.1 1-.1S11.5 36.9 11.9 36.9zM30.6 15.7c1.4 1.4 3.5 1.3 4.8 0 1.4-1.4 1.3-3.6 0-4.8-1.3-1.3-3.5-1.3-4.8 0C29.3 12.1 29.2 14.3 30.6 15.7z"/><path d="M21.8,24.5c2.6,2.6,8.2-0.4,11.2-2.6c3.1,2.2,8.6,5.2,11.2,2.6c2.6-2.6-0.4-8.1-2.6-11.2c2.2-3.1,5.2-8.6,2.6-11.2
		C41.6-0.6,36.1,2.4,33,4.6C30,2.4,24.4-0.6,21.8,2c-2.2,2.2-0.6,6.8,2.6,11.2C21.2,17.7,19.6,22.3,21.8,24.5z M23.2,23.1
		c-1-1-0.3-4.2,2.5-8.2c1.7,2.1,3.6,4,5.7,5.7C29.5,21.8,24.7,24.6,23.2,23.1z M42.8,23.1c-1.5,1.5-6.4-1.2-8.2-2.5
		c2.1-1.7,4-3.6,5.7-5.7C41.7,16.9,44.3,21.5,42.8,23.1z M42.8,3.4c1.5,1.5-1.2,6.3-2.5,8.2c-1.7-2.1-3.6-4-5.7-5.7
		C36.5,4.7,41.3,1.9,42.8,3.4z M33,7.1c2.3,1.8,4.4,4,6.1,6.1c-1.7,2.2-3.8,4.3-6.1,6.1c-2.3-1.8-4.4-4-6.1-6.1
		C28.6,11.1,30.7,8.9,33,7.1z M23.2,3.4c1.5-1.5,6.3,1.2,8.2,2.5c-2.1,1.7-4,3.6-5.7,5.7C22.9,7.6,22.2,4.4,23.2,3.4z"/></svg>